<svg xmlns="http://www.w3.org/2000/svg" viewBox="0 0 64 64" fill="none">
  <rect width="64" height="64" rx="14" fill="#F6821F"/>
  <path d="M44 36c0.6-2.2-0.1-4.6-1.8-6-1.5-1.2-3.5-1.6-5.3-1l-0.3 0.1-0.2-0.3c-0.8-1.8-2.5-3.1-4.5-3.2-2.9-0.3-5.5 1.8-5.8 4.7l0 0.5-0.5-0.1c-2.1-0.4-4.2 1-4.6 3.2-0.4 2.1 1 4.2 3.2 4.6 0.2 0 0.5 0.1 0.7 0.1h17.8c1.6 0 3-1.1 3.4-2.7l0-0.2-1.9 0.3z" fill="white"/>
  <path d="M50 31.5c-0.2 0-0.5 0-0.7 0.1l-0.4 0.1-0.2-0.4c-1-2.6-3.5-4.3-6.4-4.3-0.7 0-1.4 0.1-2.1 0.3l-0.4 0.1-0.2-0.4c-1.4-2.3-3.8-3.7-6.5-3.7-4.2 0-7.6 3.4-7.6 7.6 0 0.3 0 0.5 0.1 0.8l0.1 0.5-0.5 0.1c-2.2 0.5-3.8 2.5-3.8 4.7 0 2.6 2.1 4.8 4.8 4.8h24c2.6 0 4.8-2.1 4.8-4.8 0-2.6-2.1-4.8-4.8-4.8l0.1-0.7z" fill="rgba(255,255,255,0.5)"/>
</svg>
